<svg width="245" height="95" viewBox="0 0 245 95" fill="none" xmlns="http://www.w3.org/2000/svg">
<path d="M142.793 4.0547C142.467 4.06447 142.16 4.19923 141.934 4.43166L137.604 8.76176C136.049 7.59966 134.199 7.01566 132.338 7.02736C130.082 7.03908 127.825 7.90236 126.1 9.62696L120.932 14.785C120.695 15.0193 120.563 15.3377 120.563 15.6717C120.563 16.0037 120.695 16.3221 120.932 16.5584L131.572 27.1969C131.807 27.4332 132.125 27.566 132.457 27.566C132.791 27.566 133.109 27.4332 133.344 27.1969L138.5 22.0389C141.644 18.8943 141.941 13.9724 139.371 10.5309L143.695 6.19296C144.058 5.83358 144.166 5.28866 143.968 4.81796C143.769 4.34725 143.302 4.04451 142.793 4.05431L142.793 4.0547ZM132.348 9.4982C133.957 9.48844 135.561 10.1037 136.793 11.3361C139.26 13.8029 139.248 17.7581 136.738 20.2656L132.457 24.5469L123.59 15.6699L127.864 11.3964C129.118 10.1425 130.739 9.5038 132.348 9.49405L132.348 9.4982ZM119.584 21.6407C119.26 21.6505 118.953 21.7872 118.727 22.0196L115.709 25.0372L114.086 23.4142C113.848 23.172 113.52 23.0392 113.18 23.045C112.854 23.0489 112.543 23.1817 112.315 23.4142L107.155 28.5722C104.008 31.7187 103.707 36.6427 106.282 40.0857L101.963 44.404C101.711 44.6345 101.563 44.9568 101.555 45.2966C101.547 45.6365 101.678 45.9665 101.918 46.2087C102.159 46.4509 102.487 46.5837 102.827 46.5778C103.168 46.572 103.491 46.4275 103.723 46.1775L108.049 41.8513C111.491 44.4197 116.413 44.1169 119.557 40.9724L124.725 35.8164H124.727C125.212 35.3281 125.212 34.541 124.727 34.0528L123.102 32.4278L126.1 29.4297C126.473 29.0684 126.585 28.5176 126.383 28.0411C126.18 27.5645 125.706 27.2618 125.188 27.2813C124.864 27.2891 124.555 27.4258 124.329 27.6583L121.331 30.6563L117.473 26.7989L120.491 23.7813C120.856 23.4219 120.966 22.8751 120.766 22.4044C120.565 21.9317 120.098 21.629 119.585 21.6407L119.584 21.6407ZM113.199 26.0626L122.066 34.9296L117.793 39.2109C115.285 41.7206 111.332 41.7323 108.863 39.2655C106.397 36.7968 106.408 32.8515 108.918 30.3415L113.199 26.0626Z" fill="#A04DF3"/>
<path d="M6.38848 83H2.69248V63.456H11.5125C12.4085 63.456 13.2112 63.596 13.9205 63.876C14.6298 64.156 15.2272 64.5667 15.7125 65.108C16.2165 65.6307 16.5992 66.2653 16.8605 67.012C17.1405 67.7587 17.2805 68.5893 17.2805 69.504C17.2805 70.848 16.9725 72.0053 16.3565 72.976C15.7592 73.9467 14.8538 74.6373 13.6405 75.048L17.6445 83H13.5285L9.88848 75.468H6.38848V83ZM11.1485 72.36C11.8578 72.36 12.4178 72.1733 12.8285 71.8C13.2392 71.408 13.4445 70.8573 13.4445 70.148V68.86C13.4445 68.1507 13.2392 67.6093 12.8285 67.236C12.4178 66.8627 11.8578 66.676 11.1485 66.676H6.38848V72.36H11.1485ZM26.4481 83.336C25.4027 83.336 24.4601 83.1587 23.6201 82.804C22.7987 82.4493 22.0894 81.936 21.4921 81.264C20.9134 80.592 20.4654 79.7893 20.1481 78.856C19.8307 77.904 19.6721 76.84 19.6721 75.664C19.6721 74.488 19.8307 73.4333 20.1481 72.5C20.4654 71.5667 20.9134 70.7733 21.4921 70.12C22.0894 69.448 22.7987 68.9347 23.6201 68.58C24.4601 68.2253 25.4027 68.048 26.4481 68.048C27.4934 68.048 28.4361 68.2253 29.2761 68.58C30.1161 68.9347 30.8254 69.448 31.4041 70.12C32.0014 70.7733 32.4587 71.5667 32.7761 72.5C33.0934 73.4333 33.2521 74.488 33.2521 75.664C33.2521 76.84 33.0934 77.904 32.7761 78.856C32.4587 79.7893 32.0014 80.592 31.4041 81.264C30.8254 81.936 30.1161 82.4493 29.2761 82.804C28.4361 83.1587 27.4934 83.336 26.4481 83.336ZM26.4481 80.452C27.4001 80.452 28.1467 80.1627 28.6881 79.584C29.2294 79.0053 29.5001 78.156 29.5001 77.036V74.32C29.5001 73.2187 29.2294 72.3787 28.6881 71.8C28.1467 71.2213 27.4001 70.932 26.4481 70.932C25.5147 70.932 24.7774 71.2213 24.2361 71.8C23.6947 72.3787 23.4241 73.2187 23.4241 74.32V77.036C23.4241 78.156 23.6947 79.0053 24.2361 79.584C24.7774 80.1627 25.5147 80.452 26.4481 80.452ZM42.1974 83.336C41.1148 83.336 40.1534 83.1587 39.3134 82.804C38.4734 82.4493 37.7641 81.936 37.1854 81.264C36.6254 80.592 36.1961 79.7893 35.8974 78.856C35.5988 77.904 35.4494 76.84 35.4494 75.664C35.4494 74.488 35.5988 73.4333 35.8974 72.5C36.1961 71.5667 36.6254 70.7733 37.1854 70.12C37.7641 69.448 38.4734 68.9347 39.3134 68.58C40.1534 68.2253 41.1148 68.048 42.1974 68.048C43.6721 68.048 44.8854 68.3747 45.8374 69.028C46.8081 69.6813 47.5081 70.5867 47.9374 71.744L44.9974 73.06C44.8294 72.444 44.5121 71.94 44.0454 71.548C43.5974 71.1373 42.9814 70.932 42.1974 70.932C41.1894 70.932 40.4334 71.2493 39.9294 71.884C39.4441 72.5187 39.2014 73.3493 39.2014 74.376V77.036C39.2014 78.0627 39.4441 78.8933 39.9294 79.528C40.4334 80.144 41.1894 80.452 42.1974 80.452C43.0561 80.452 43.7188 80.2373 44.1854 79.808C44.6521 79.36 45.0161 78.8093 45.2774 78.156L48.0214 79.472C47.5361 80.76 46.7988 81.7307 45.8094 82.384C44.8201 83.0187 43.6161 83.336 42.1974 83.336ZM50.7849 62.28H54.3689V74.768H54.5089L56.4409 72.136L59.7169 68.384H63.7769L58.7369 74.04L64.3089 83H60.0529L56.3009 76.448L54.3689 78.548V83H50.7849V62.28ZM71.0221 83.336C69.6221 83.336 68.4461 83.1027 67.4941 82.636C66.5421 82.1507 65.7021 81.488 64.9741 80.648L67.1581 78.52C67.6994 79.136 68.2874 79.6213 68.9221 79.976C69.5754 80.3307 70.3221 80.508 71.1621 80.508C72.0208 80.508 72.6368 80.3587 73.0101 80.06C73.4021 79.7613 73.5981 79.3507 73.5981 78.828C73.5981 78.3987 73.4581 78.0627 73.1781 77.82C72.9168 77.5587 72.4594 77.3813 71.8061 77.288L70.3501 77.092C68.7634 76.8867 67.5501 76.4387 66.7101 75.748C65.8888 75.0387 65.4781 74.012 65.4781 72.668C65.4781 71.9587 65.6088 71.324 65.8701 70.764C66.1314 70.1853 66.5048 69.7 66.9901 69.308C67.4754 68.8973 68.0541 68.5893 68.7261 68.384C69.4168 68.16 70.1821 68.048 71.0221 68.048C71.7314 68.048 72.3568 68.104 72.8981 68.216C73.4581 68.3093 73.9621 68.4587 74.4101 68.664C74.8581 68.8507 75.2688 69.0933 75.6421 69.392C76.0154 69.672 76.3794 69.9893 76.7341 70.344L74.6341 72.444C74.2048 71.996 73.6914 71.6227 73.0941 71.324C72.4968 71.0253 71.8434 70.876 71.1341 70.876C70.3501 70.876 69.7808 71.016 69.4261 71.296C69.0901 71.576 68.9221 71.94 68.9221 72.388C68.9221 72.8733 69.0621 73.2467 69.3421 73.508C69.6408 73.7507 70.1354 73.928 70.8261 74.04L72.3101 74.236C75.4648 74.684 77.0421 76.1213 77.0421 78.548C77.0421 79.2573 76.8928 79.9107 76.5941 80.508C76.3141 81.0867 75.9128 81.5907 75.3901 82.02C74.8674 82.4307 74.2328 82.7573 73.4861 83C72.7581 83.224 71.9368 83.336 71.0221 83.336ZM86.1148 83.336C85.0321 83.336 84.0614 83.1587 83.2028 82.804C82.3628 82.4307 81.6441 81.9173 81.0468 81.264C80.4681 80.592 80.0201 79.7893 79.7028 78.856C79.3854 77.904 79.2268 76.84 79.2268 75.664C79.2268 74.5067 79.3761 73.4613 79.6748 72.528C79.9921 71.5947 80.4401 70.8013 81.0188 70.148C81.5974 69.476 82.3068 68.9627 83.1468 68.608C83.9868 68.2347 84.9388 68.048 86.0028 68.048C87.1414 68.048 88.1308 68.244 88.9708 68.636C89.8108 69.028 90.5014 69.56 91.0428 70.232C91.5841 70.904 91.9854 71.688 92.2468 72.584C92.5268 73.4613 92.6668 74.404 92.6668 75.412V76.588H82.9508V76.952C82.9508 78.016 83.2494 78.8747 83.8468 79.528C84.4441 80.1627 85.3308 80.48 86.5068 80.48C87.4028 80.48 88.1308 80.2933 88.6908 79.92C89.2694 79.5467 89.7828 79.0707 90.2308 78.492L92.1628 80.648C91.5654 81.488 90.7441 82.1507 89.6988 82.636C88.6721 83.1027 87.4774 83.336 86.1148 83.336ZM86.0588 70.736C85.1068 70.736 84.3508 71.0533 83.7908 71.688C83.2308 72.3227 82.9508 73.144 82.9508 74.152V74.376H88.9428V74.124C88.9428 73.116 88.6908 72.304 88.1868 71.688C87.7014 71.0533 86.9921 70.736 86.0588 70.736ZM100.384 83C99.152 83 98.2094 82.6827 97.556 82.048C96.9214 81.3947 96.604 80.4707 96.604 79.276V71.24H94.448V68.384H95.568C96.1094 68.384 96.4734 68.2627 96.66 68.02C96.8654 67.7587 96.968 67.376 96.968 66.872V64.38H100.188V68.384H103.184V71.24H100.188V80.144H102.96V83H100.384ZM120.722 83.336C119.434 83.336 118.267 83.1307 117.222 82.72C116.195 82.2907 115.309 81.656 114.562 80.816C113.834 79.976 113.274 78.94 112.882 77.708C112.49 76.4573 112.294 75.0107 112.294 73.368C112.294 71.7253 112.49 70.2693 112.882 69C113.274 67.712 113.834 66.6387 114.562 65.78C115.309 64.9027 116.195 64.24 117.222 63.792C118.267 63.344 119.434 63.12 120.722 63.12C122.477 63.12 123.933 63.4933 125.09 64.24C126.247 64.9867 127.171 66.116 127.862 67.628L124.698 69.308C124.418 68.4307 123.961 67.7307 123.326 67.208C122.691 66.6667 121.823 66.396 120.722 66.396C119.341 66.396 118.239 66.8627 117.418 67.796C116.615 68.7293 116.214 70.036 116.214 71.716V74.796C116.214 76.4947 116.615 77.8013 117.418 78.716C118.239 79.612 119.341 80.06 120.722 80.06C121.823 80.06 122.719 79.7613 123.41 79.164C124.119 78.5667 124.633 77.8293 124.95 76.952L127.946 78.716C127.237 80.172 126.294 81.3107 125.118 82.132C123.942 82.9347 122.477 83.336 120.722 83.336ZM136.671 83.336C135.625 83.336 134.683 83.1587 133.843 82.804C133.021 82.4493 132.312 81.936 131.715 81.264C131.136 80.592 130.688 79.7893 130.371 78.856C130.053 77.904 129.895 76.84 129.895 75.664C129.895 74.488 130.053 73.4333 130.371 72.5C130.688 71.5667 131.136 70.7733 131.715 70.12C132.312 69.448 133.021 68.9347 133.843 68.58C134.683 68.2253 135.625 68.048 136.671 68.048C137.716 68.048 138.659 68.2253 139.499 68.58C140.339 68.9347 141.048 69.448 141.627 70.12C142.224 70.7733 142.681 71.5667 142.999 72.5C143.316 73.4333 143.475 74.488 143.475 75.664C143.475 76.84 143.316 77.904 142.999 78.856C142.681 79.7893 142.224 80.592 141.627 81.264C141.048 81.936 140.339 82.4493 139.499 82.804C138.659 83.1587 137.716 83.336 136.671 83.336ZM136.671 80.452C137.623 80.452 138.369 80.1627 138.911 79.584C139.452 79.0053 139.723 78.156 139.723 77.036V74.32C139.723 73.2187 139.452 72.3787 138.911 71.8C138.369 71.2213 137.623 70.932 136.671 70.932C135.737 70.932 135 71.2213 134.459 71.8C133.917 72.3787 133.647 73.2187 133.647 74.32V77.036C133.647 78.156 133.917 79.0053 134.459 79.584C135 80.1627 135.737 80.452 136.671 80.452ZM146.652 83V68.384H150.236V70.82H150.376C150.675 70.036 151.141 69.3827 151.776 68.86C152.429 68.3187 153.325 68.048 154.464 68.048C155.976 68.048 157.133 68.5427 157.936 69.532C158.739 70.5213 159.14 71.9307 159.14 73.76V83H155.556V74.124C155.556 73.0787 155.369 72.2947 154.996 71.772C154.623 71.2493 154.007 70.988 153.148 70.988C152.775 70.988 152.411 71.044 152.056 71.156C151.72 71.2493 151.412 71.3987 151.132 71.604C150.871 71.7907 150.656 72.0333 150.488 72.332C150.32 72.612 150.236 72.948 150.236 73.34V83H146.652ZM163.113 83V68.384H166.697V70.82H166.837C167.136 70.036 167.602 69.3827 168.237 68.86C168.89 68.3187 169.786 68.048 170.925 68.048C172.437 68.048 173.594 68.5427 174.397 69.532C175.2 70.5213 175.601 71.9307 175.601 73.76V83H172.017V74.124C172.017 73.0787 171.83 72.2947 171.457 71.772C171.084 71.2493 170.468 70.988 169.609 70.988C169.236 70.988 168.872 71.044 168.517 71.156C168.181 71.2493 167.873 71.3987 167.593 71.604C167.332 71.7907 167.117 72.0333 166.949 72.332C166.781 72.612 166.697 72.948 166.697 73.34V83H163.113ZM185.482 83.336C184.399 83.336 183.429 83.1587 182.57 82.804C181.73 82.4307 181.011 81.9173 180.414 81.264C179.835 80.592 179.387 79.7893 179.07 78.856C178.753 77.904 178.594 76.84 178.594 75.664C178.594 74.5067 178.743 73.4613 179.042 72.528C179.359 71.5947 179.807 70.8013 180.386 70.148C180.965 69.476 181.674 68.9627 182.514 68.608C183.354 68.2347 184.306 68.048 185.37 68.048C186.509 68.048 187.498 68.244 188.338 68.636C189.178 69.028 189.869 69.56 190.41 70.232C190.951 70.904 191.353 71.688 191.614 72.584C191.894 73.4613 192.034 74.404 192.034 75.412V76.588H182.318V76.952C182.318 78.016 182.617 78.8747 183.214 79.528C183.811 80.1627 184.698 80.48 185.874 80.48C186.77 80.48 187.498 80.2933 188.058 79.92C188.637 79.5467 189.15 79.0707 189.598 78.492L191.53 80.648C190.933 81.488 190.111 82.1507 189.066 82.636C188.039 83.1027 186.845 83.336 185.482 83.336ZM185.426 70.736C184.474 70.736 183.718 71.0533 183.158 71.688C182.598 72.3227 182.318 73.144 182.318 74.152V74.376H188.31V74.124C188.31 73.116 188.058 72.304 187.554 71.688C187.069 71.0533 186.359 70.736 185.426 70.736ZM200.955 83.336C199.873 83.336 198.911 83.1587 198.071 82.804C197.231 82.4493 196.522 81.936 195.943 81.264C195.383 80.592 194.954 79.7893 194.655 78.856C194.357 77.904 194.207 76.84 194.207 75.664C194.207 74.488 194.357 73.4333 194.655 72.5C194.954 71.5667 195.383 70.7733 195.943 70.12C196.522 69.448 197.231 68.9347 198.071 68.58C198.911 68.2253 199.873 68.048 200.955 68.048C202.43 68.048 203.643 68.3747 204.595 69.028C205.566 69.6813 206.266 70.5867 206.695 71.744L203.755 73.06C203.587 72.444 203.27 71.94 202.803 71.548C202.355 71.1373 201.739 70.932 200.955 70.932C199.947 70.932 199.191 71.2493 198.687 71.884C198.202 72.5187 197.959 73.3493 197.959 74.376V77.036C197.959 78.0627 198.202 78.8933 198.687 79.528C199.191 80.144 199.947 80.452 200.955 80.452C201.814 80.452 202.477 80.2373 202.943 79.808C203.41 79.36 203.774 78.8093 204.035 78.156L206.779 79.472C206.294 80.76 205.557 81.7307 204.567 82.384C203.578 83.0187 202.374 83.336 200.955 83.336ZM214.107 83C212.875 83 211.932 82.6827 211.279 82.048C210.644 81.3947 210.327 80.4707 210.327 79.276V71.24H208.171V68.384H209.291C209.832 68.384 210.196 68.2627 210.383 68.02C210.588 67.7587 210.691 67.376 210.691 66.872V64.38H213.911V68.384H216.907V71.24H213.911V80.144H216.683V83H214.107ZM225.702 83.336C224.657 83.336 223.714 83.1587 222.874 82.804C222.053 82.4493 221.343 81.936 220.746 81.264C220.167 80.592 219.719 79.7893 219.402 78.856C219.085 77.904 218.926 76.84 218.926 75.664C218.926 74.488 219.085 73.4333 219.402 72.5C219.719 71.5667 220.167 70.7733 220.746 70.12C221.343 69.448 222.053 68.9347 222.874 68.58C223.714 68.2253 224.657 68.048 225.702 68.048C226.747 68.048 227.69 68.2253 228.53 68.58C229.37 68.9347 230.079 69.448 230.658 70.12C231.255 70.7733 231.713 71.5667 232.03 72.5C232.347 73.4333 232.506 74.488 232.506 75.664C232.506 76.84 232.347 77.904 232.03 78.856C231.713 79.7893 231.255 80.592 230.658 81.264C230.079 81.936 229.37 82.4493 228.53 82.804C227.69 83.1587 226.747 83.336 225.702 83.336ZM225.702 80.452C226.654 80.452 227.401 80.1627 227.942 79.584C228.483 79.0053 228.754 78.156 228.754 77.036V74.32C228.754 73.2187 228.483 72.3787 227.942 71.8C227.401 71.2213 226.654 70.932 225.702 70.932C224.769 70.932 224.031 71.2213 223.49 71.8C222.949 72.3787 222.678 73.2187 222.678 74.32V77.036C222.678 78.156 222.949 79.0053 223.49 79.584C224.031 80.1627 224.769 80.452 225.702 80.452ZM235.683 83V68.384H239.267V71.408H239.407C239.501 71.016 239.641 70.6427 239.827 70.288C240.033 69.9147 240.294 69.588 240.611 69.308C240.929 69.028 241.302 68.804 241.731 68.636C242.179 68.468 242.693 68.384 243.271 68.384H244.055V71.772H242.935C241.722 71.772 240.807 71.9493 240.191 72.304C239.575 72.6587 239.267 73.2373 239.267 74.04V83H235.683Z" fill="#9900E5"/>
</svg>
