<svg width="27" height="27" viewBox="0 0 27 27" fill="none" xmlns="http://www.w3.org/2000/svg">
<path fill-rule="evenodd" clip-rule="evenodd" d="M13.3672 26.7344C5.98484 26.7344 0 20.7496 0 13.3672C0 5.98395 5.98484 0 13.3672 0C20.7496 0 26.7344 5.98395 26.7344 13.3672C26.7344 20.7496 20.7496 26.7344 13.3672 26.7344Z" fill="#2400AF"/>
<path fill-rule="evenodd" clip-rule="evenodd" d="M16.0602 7.68475C16.0602 7.68475 14.4394 7.40376 14.0584 7.85672C13.5005 8.13328 13.6793 9.90969 13.6793 9.90969H15.7053V11.7082H13.6793V19.6799H11.2733V11.7082H9.77832V9.90969H11.2985C11.1592 9.9088 11.3739 8.14747 11.3901 7.98171C11.4755 7.09882 12.1367 6.32054 12.9857 6.03157C14.1492 5.63533 15.212 5.85339 16.3638 6.13616C16.2632 6.65206 16.1608 7.17062 16.0602 7.68475Z" fill="white"/>
</svg>
