<svg width="51" height="50" viewBox="0 0 51 50" fill="none" xmlns="http://www.w3.org/2000/svg">
<path d="M40.4034 5.11284L15.7671 17.1337C15.3976 17.3143 15.1582 17.6841 15.1443 18.0938C15.1305 18.5053 15.3439 18.8907 15.6995 19.0956L21.683 22.5417L12.7208 30.3506C12.4276 30.6076 12.2889 30.9982 12.3565 31.3819C12.4242 31.7655 12.6879 32.0867 13.0522 32.2256L16.9642 33.7308L9.25128 43.1855H9.24954C8.90778 43.6056 8.91819 44.2115 9.27383 44.6195C9.62946 45.0275 10.228 45.1195 10.6894 44.8365L29.646 33.2045C30.045 32.9615 30.2462 32.4944 30.1542 32.0361C30.0606 31.5795 29.6928 31.2288 29.2313 31.1594L25.7981 30.642L35.6015 22.1002V22.0985C35.8964 21.8433 36.0334 21.4509 35.9658 21.0672C35.8981 20.6835 35.6344 20.3641 35.2718 20.2235L31.8751 18.9162L41.7495 6.81398C42.0791 6.40947 42.0843 5.82963 41.7599 5.42163C41.4355 5.0119 40.8718 4.88369 40.4034 5.11284ZM29.1842 18.7013C28.9587 18.9773 28.8806 19.3436 28.9708 19.6891C29.0628 20.0329 29.3143 20.3124 29.6457 20.4409L32.751 21.6353L22.5275 30.5433C22.2014 30.828 22.0695 31.2777 22.1892 31.6926C22.3107 32.1093 22.6628 32.4166 23.0913 32.4808L25.8896 32.9027L15.1096 39.5173L19.6529 33.948C19.8784 33.672 19.9582 33.3056 19.8663 32.9601C19.7743 32.6164 19.5245 32.3369 19.1914 32.2084L15.5692 30.8143L24.316 23.1961C24.5866 22.96 24.7271 22.6076 24.6924 22.2499C24.656 21.8923 24.4513 21.5728 24.1408 21.394L18.6204 18.2135L36.8308 9.32636L29.1842 18.7013Z" fill="#9900E5"/>
<path d="M40.4034 5.11284L15.7671 17.1337C15.3976 17.3143 15.1582 17.6841 15.1443 18.0938C15.1305 18.5053 15.3439 18.8907 15.6995 19.0956L21.683 22.5417L12.7208 30.3506C12.4276 30.6076 12.2889 30.9982 12.3565 31.3819C12.4242 31.7655 12.6879 32.0867 13.0522 32.2256L16.9642 33.7308L9.25128 43.1855H9.24954C8.90778 43.6056 8.91819 44.2115 9.27383 44.6195C9.62946 45.0275 10.228 45.1195 10.6894 44.8365L29.646 33.2045C30.045 32.9615 30.2462 32.4944 30.1542 32.0361C30.0606 31.5795 29.6928 31.2288 29.2313 31.1594L25.7981 30.642L35.6015 22.1002V22.0985C35.8964 21.8433 36.0334 21.4509 35.9658 21.0672C35.8981 20.6835 35.6344 20.3641 35.2718 20.2235L31.8751 18.9162L41.7495 6.81398C42.0791 6.40947 42.0843 5.82963 41.7599 5.42163C41.4355 5.0119 40.8718 4.88369 40.4034 5.11284ZM29.1842 18.7013C28.9587 18.9773 28.8806 19.3436 28.9708 19.6891C29.0628 20.0329 29.3143 20.3124 29.6457 20.4409L32.751 21.6353L22.5275 30.5433C22.2014 30.828 22.0695 31.2777 22.1892 31.6926C22.3107 32.1093 22.6628 32.4166 23.0913 32.4808L25.8896 32.9027L15.1096 39.5173L19.6529 33.948C19.8784 33.672 19.9582 33.3056 19.8663 32.9601C19.7743 32.6164 19.5245 32.3369 19.1914 32.2084L15.5692 30.8143L24.316 23.1961C24.5866 22.96 24.7271 22.6076 24.6924 22.2499C24.656 21.8923 24.4513 21.5728 24.1408 21.394L18.6204 18.2135L36.8308 9.32636L29.1842 18.7013Z" fill="#4B26E1" fill-opacity="0.4"/>
</svg>
