<svg width="27" height="27" viewBox="0 0 27 27" fill="none" xmlns="http://www.w3.org/2000/svg">
<path fill-rule="evenodd" clip-rule="evenodd" d="M26.7344 13.3672C26.7344 20.7496 20.7496 26.7344 13.3672 26.7344C5.98484 26.7344 0 20.7496 0 13.3672C0 5.98395 5.98484 0 13.3672 0C20.7496 0 26.7344 5.98395 26.7344 13.3672Z" fill="#2400AF"/>
<path fill-rule="evenodd" clip-rule="evenodd" d="M7.66016 19.0013H10.0976V10.9927H7.66016V19.0013Z" fill="white"/>
<path fill-rule="evenodd" clip-rule="evenodd" d="M9.05296 9.59982C8.28267 9.59982 7.66016 8.97665 7.66016 8.20744C7.66016 7.43823 8.28267 6.81421 9.05296 6.81421C9.8207 6.81421 10.4458 7.43823 10.4458 8.20744C10.4458 8.97665 9.8207 9.59982 9.05296 9.59982Z" fill="white"/>
<path fill-rule="evenodd" clip-rule="evenodd" d="M19.4989 19.0011H16.9319V15.035C16.9319 14.0899 16.9146 12.8724 15.5976 12.8724C14.2605 12.8724 14.0572 13.9044 14.0572 14.9669V19.0011H11.4902V10.8459H13.9537V11.9612H13.9891C14.3313 11.3198 15.1691 10.6443 16.4181 10.6443C19.0187 10.6443 19.4989 12.333 19.4989 14.5289V19.0011Z" fill="white"/>
</svg>
