<svg width="51" height="50" viewBox="0 0 51 50" fill="none" xmlns="http://www.w3.org/2000/svg">
<path d="M44.3978 23.604L37.5579 16.4599C37.0765 15.9599 36.2954 15.9599 35.8139 16.4599C35.3325 16.9598 35.3325 17.771 35.8139 18.2709L40.5609 23.2003L27.4226 23.2022L20.8334 15.011C19.8287 13.7414 18.3282 13.0038 16.7458 13H7.22989C6.55046 13 6 13.5716 6 14.2771C6 14.9827 6.55046 15.5543 7.22989 15.5543H16.7258C17.5778 15.5524 18.3881 15.9429 18.9349 16.622L25.2515 24.5094L18.9349 32.378C18.3881 33.0552 17.5778 33.4476 16.7258 33.4438H7.22989C6.55046 33.4438 6 34.0154 6 34.721C6 35.4265 6.55046 36 7.22989 36H16.7258C18.3099 35.9962 19.8087 35.2567 20.8152 33.9871L27.3262 25.7979H40.4846L35.7376 30.7272H35.7358C35.2543 31.2272 35.2543 32.0383 35.7358 32.5383C36.2172 33.0382 36.9984 33.0382 37.4798 32.5383L44.3197 25.4357C44.5704 25.2074 44.7211 24.8829 44.7357 24.5358C44.7502 24.1906 44.6285 23.8529 44.3978 23.6039L44.3978 23.604Z" fill="#4B26E1"/>
</svg>
