<svg width="173" height="100" viewBox="0 0 173 100" fill="none" xmlns="http://www.w3.org/2000/svg">
<path d="M101.403 5.11284L76.7671 17.1337C76.3976 17.3143 76.1582 17.6841 76.1443 18.0938C76.1305 18.5053 76.3439 18.8907 76.6995 19.0956L82.683 22.5417L73.7208 30.3506C73.4276 30.6076 73.2889 30.9982 73.3565 31.3819C73.4242 31.7655 73.6879 32.0867 74.0522 32.2256L77.9642 33.7308L70.2513 43.1855H70.2495C69.9078 43.6056 69.9182 44.2115 70.2738 44.6195C70.6295 45.0275 71.228 45.1195 71.6894 44.8365L90.646 33.2045C91.045 32.9615 91.2462 32.4944 91.1542 32.0361C91.0606 31.5795 90.6928 31.2288 90.2313 31.1594L86.7981 30.642L96.6015 22.1002V22.0985C96.8964 21.8433 97.0334 21.4509 96.9658 21.0672C96.8981 20.6835 96.6344 20.3641 96.2718 20.2235L92.8751 18.9162L102.75 6.81398C103.079 6.40947 103.084 5.82963 102.76 5.42163C102.435 5.0119 101.872 4.88369 101.403 5.11284ZM90.1842 18.7013C89.9587 18.9773 89.8806 19.3436 89.9708 19.6891C90.0628 20.0329 90.3143 20.3124 90.6457 20.4409L93.751 21.6353L83.5275 30.5433C83.2014 30.828 83.0695 31.2777 83.1892 31.6926C83.3107 32.1093 83.6628 32.4166 84.0913 32.4808L86.8896 32.9027L76.1096 39.5173L80.6529 33.948C80.8784 33.672 80.9582 33.3056 80.8663 32.9601C80.7743 32.6164 80.5245 32.3369 80.1914 32.2084L76.5692 30.8143L85.316 23.1961C85.5866 22.96 85.7271 22.6076 85.6924 22.2499C85.656 21.8923 85.4513 21.5728 85.1408 21.394L79.6204 18.2135L97.8308 9.32636L90.1842 18.7013Z" fill="#9900E5"/>
<path d="M101.403 5.11284L76.7671 17.1337C76.3976 17.3143 76.1582 17.6841 76.1443 18.0938C76.1305 18.5053 76.3439 18.8907 76.6995 19.0956L82.683 22.5417L73.7208 30.3506C73.4276 30.6076 73.2889 30.9982 73.3565 31.3819C73.4242 31.7655 73.6879 32.0867 74.0522 32.2256L77.9642 33.7308L70.2513 43.1855H70.2495C69.9078 43.6056 69.9182 44.2115 70.2738 44.6195C70.6295 45.0275 71.228 45.1195 71.6894 44.8365L90.646 33.2045C91.045 32.9615 91.2462 32.4944 91.1542 32.0361C91.0606 31.5795 90.6928 31.2288 90.2313 31.1594L86.7981 30.642L96.6015 22.1002V22.0985C96.8964 21.8433 97.0334 21.4509 96.9658 21.0672C96.8981 20.6835 96.6344 20.3641 96.2718 20.2235L92.8751 18.9162L102.75 6.81398C103.079 6.40947 103.084 5.82963 102.76 5.42163C102.435 5.0119 101.872 4.88369 101.403 5.11284ZM90.1842 18.7013C89.9587 18.9773 89.8806 19.3436 89.9708 19.6891C90.0628 20.0329 90.3143 20.3124 90.6457 20.4409L93.751 21.6353L83.5275 30.5433C83.2014 30.828 83.0695 31.2777 83.1892 31.6926C83.3107 32.1093 83.6628 32.4166 84.0913 32.4808L86.8896 32.9027L76.1096 39.5173L80.6529 33.948C80.8784 33.672 80.9582 33.3056 80.8663 32.9601C80.7743 32.6164 80.5245 32.3369 80.1914 32.2084L76.5692 30.8143L85.316 23.1961C85.5866 22.96 85.7271 22.6076 85.6924 22.2499C85.656 21.8923 85.4513 21.5728 85.1408 21.394L79.6204 18.2135L97.8308 9.32636L90.1842 18.7013Z" fill="#4B26E1" fill-opacity="0.4"/>
<path d="M8.89209 77.976L6.87609 73.916H6.79209V88H3.29209V68.456H7.35209L13.2321 78.48L15.2481 82.54H15.3321V68.456H18.8321V88H14.7721L8.89209 77.976ZM28.9891 88.336C27.9438 88.336 27.0011 88.1587 26.1611 87.804C25.3398 87.4493 24.6304 86.936 24.0331 86.264C23.4544 85.592 23.0064 84.7893 22.6891 83.856C22.3718 82.904 22.2131 81.84 22.2131 80.664C22.2131 79.488 22.3718 78.4333 22.6891 77.5C23.0064 76.5667 23.4544 75.7733 24.0331 75.12C24.6304 74.448 25.3398 73.9347 26.1611 73.58C27.0011 73.2253 27.9438 73.048 28.9891 73.048C30.0344 73.048 30.9771 73.2253 31.8171 73.58C32.6571 73.9347 33.3664 74.448 33.9451 75.12C34.5424 75.7733 34.9998 76.5667 35.3171 77.5C35.6344 78.4333 35.7931 79.488 35.7931 80.664C35.7931 81.84 35.6344 82.904 35.3171 83.856C34.9998 84.7893 34.5424 85.592 33.9451 86.264C33.3664 86.936 32.6571 87.4493 31.8171 87.804C30.9771 88.1587 30.0344 88.336 28.9891 88.336ZM28.9891 85.452C29.9411 85.452 30.6878 85.1627 31.2291 84.584C31.7704 84.0053 32.0411 83.156 32.0411 82.036V79.32C32.0411 78.2187 31.7704 77.3787 31.2291 76.8C30.6878 76.2213 29.9411 75.932 28.9891 75.932C28.0558 75.932 27.3184 76.2213 26.7771 76.8C26.2358 77.3787 25.9651 78.2187 25.9651 79.32V82.036C25.9651 83.156 26.2358 84.0053 26.7771 84.584C27.3184 85.1627 28.0558 85.452 28.9891 85.452ZM45.8116 68.456H52.9236C54.193 68.456 55.341 68.6613 56.3676 69.072C57.413 69.4827 58.2996 70.0987 59.0276 70.92C59.7743 71.7227 60.3436 72.74 60.7356 73.972C61.1463 75.1853 61.3516 76.604 61.3516 78.228C61.3516 79.852 61.1463 81.28 60.7356 82.512C60.3436 83.7253 59.7743 84.7427 59.0276 85.564C58.2996 86.3667 57.413 86.9733 56.3676 87.384C55.341 87.7947 54.193 88 52.9236 88H45.8116V68.456ZM52.9236 84.724C54.305 84.724 55.397 84.3227 56.1996 83.52C57.021 82.6987 57.4316 81.448 57.4316 79.768V76.688C57.4316 75.008 57.021 73.7667 56.1996 72.964C55.397 72.1427 54.305 71.732 52.9236 71.732H49.5076V84.724H52.9236ZM75.6443 88C74.8603 88 74.235 87.776 73.7683 87.328C73.3203 86.8613 73.0403 86.2453 72.9283 85.48H72.7603C72.5176 86.432 72.023 87.1507 71.2763 87.636C70.5296 88.1027 69.6056 88.336 68.5043 88.336C67.011 88.336 65.863 87.944 65.0603 87.16C64.2576 86.376 63.8563 85.3307 63.8563 84.024C63.8563 82.512 64.3976 81.392 65.4803 80.664C66.563 79.9173 68.103 79.544 70.1003 79.544H72.5923V78.48C72.5923 77.6587 72.3776 77.024 71.9483 76.576C71.519 76.128 70.8283 75.904 69.8763 75.904C69.0363 75.904 68.355 76.0907 67.8323 76.464C67.3283 76.8187 66.899 77.248 66.5443 77.752L64.4163 75.848C64.9576 75.008 65.6763 74.336 66.5723 73.832C67.4683 73.3093 68.6536 73.048 70.1283 73.048C72.107 73.048 73.6096 73.496 74.6363 74.392C75.663 75.288 76.1763 76.576 76.1763 78.256V85.144H77.6323V88H75.6443ZM69.7083 85.732C70.511 85.732 71.1923 85.5547 71.7523 85.2C72.3123 84.8453 72.5923 84.3227 72.5923 83.632V81.7H70.2963C68.4296 81.7 67.4963 82.2973 67.4963 83.492V83.968C67.4963 84.5653 67.683 85.0133 68.0563 85.312C68.4483 85.592 68.999 85.732 69.7083 85.732ZM84.9876 88C83.7556 88 82.8129 87.6827 82.1596 87.048C81.5249 86.3947 81.2076 85.4707 81.2076 84.276V76.24H79.0516V73.384H80.1716C80.7129 73.384 81.0769 73.2627 81.2636 73.02C81.4689 72.7587 81.5716 72.376 81.5716 71.872V69.38H84.7916V73.384H87.7876V76.24H84.7916V85.144H87.5636V88H84.9876ZM101.648 88C100.864 88 100.239 87.776 99.7722 87.328C99.3242 86.8613 99.0442 86.2453 98.9322 85.48H98.7642C98.5216 86.432 98.0269 87.1507 97.2802 87.636C96.5336 88.1027 95.6096 88.336 94.5082 88.336C93.0149 88.336 91.8669 87.944 91.0642 87.16C90.2616 86.376 89.8602 85.3307 89.8602 84.024C89.8602 82.512 90.4016 81.392 91.4842 80.664C92.5669 79.9173 94.1069 79.544 96.1042 79.544H98.5962V78.48C98.5962 77.6587 98.3816 77.024 97.9522 76.576C97.5229 76.128 96.8322 75.904 95.8802 75.904C95.0402 75.904 94.3589 76.0907 93.8362 76.464C93.3322 76.8187 92.9029 77.248 92.5482 77.752L90.4202 75.848C90.9616 75.008 91.6802 74.336 92.5762 73.832C93.4722 73.3093 94.6576 73.048 96.1322 73.048C98.1109 73.048 99.6136 73.496 100.64 74.392C101.667 75.288 102.18 76.576 102.18 78.256V85.144H103.636V88H101.648ZM95.7122 85.732C96.5149 85.732 97.1962 85.5547 97.7562 85.2C98.3162 84.8453 98.5962 84.3227 98.5962 83.632V81.7H96.3002C94.4336 81.7 93.5002 82.2973 93.5002 83.492V83.968C93.5002 84.5653 93.6869 85.0133 94.0602 85.312C94.4522 85.592 95.0029 85.732 95.7122 85.732ZM113.378 88V68.456H122.17C123.066 68.456 123.869 68.6053 124.578 68.904C125.306 69.184 125.922 69.5947 126.426 70.136C126.93 70.6587 127.313 71.2933 127.574 72.04C127.835 72.7867 127.966 73.608 127.966 74.504C127.966 75.4187 127.835 76.2493 127.574 76.996C127.313 77.724 126.93 78.3587 126.426 78.9C125.922 79.4227 125.306 79.8333 124.578 80.132C123.869 80.412 123.066 80.552 122.17 80.552H117.074V88H113.378ZM117.074 77.36H121.834C122.543 77.36 123.103 77.1733 123.514 76.8C123.925 76.408 124.13 75.8573 124.13 75.148V73.86C124.13 73.1507 123.925 72.6093 123.514 72.236C123.103 71.8627 122.543 71.676 121.834 71.676H117.074V77.36ZM130.818 88V73.384H134.402V76.408H134.542C134.635 76.016 134.775 75.6427 134.962 75.288C135.167 74.9147 135.429 74.588 135.746 74.308C136.063 74.028 136.437 73.804 136.866 73.636C137.314 73.468 137.827 73.384 138.406 73.384H139.19V76.772H138.07C136.857 76.772 135.942 76.9493 135.326 77.304C134.71 77.6587 134.402 78.2373 134.402 79.04V88H130.818ZM147.582 88.336C146.499 88.336 145.528 88.1587 144.67 87.804C143.83 87.4307 143.111 86.9173 142.514 86.264C141.935 85.592 141.487 84.7893 141.17 83.856C140.852 82.904 140.694 81.84 140.694 80.664C140.694 79.5067 140.843 78.4613 141.142 77.528C141.459 76.5947 141.907 75.8013 142.486 75.148C143.064 74.476 143.774 73.9627 144.614 73.608C145.454 73.2347 146.406 73.048 147.47 73.048C148.608 73.048 149.598 73.244 150.438 73.636C151.278 74.028 151.968 74.56 152.51 75.232C153.051 75.904 153.452 76.688 153.714 77.584C153.994 78.4613 154.134 79.404 154.134 80.412V81.588H144.418V81.952C144.418 83.016 144.716 83.8747 145.314 84.528C145.911 85.1627 146.798 85.48 147.974 85.48C148.87 85.48 149.598 85.2933 150.158 84.92C150.736 84.5467 151.25 84.0707 151.698 83.492L153.63 85.648C153.032 86.488 152.211 87.1507 151.166 87.636C150.139 88.1027 148.944 88.336 147.582 88.336ZM147.526 75.736C146.574 75.736 145.818 76.0533 145.258 76.688C144.698 77.3227 144.418 78.144 144.418 79.152V79.376H150.41V79.124C150.41 78.116 150.158 77.304 149.654 76.688C149.168 76.0533 148.459 75.736 147.526 75.736ZM157.287 73.384H160.871V75.792H160.983C161.244 74.952 161.739 74.2893 162.467 73.804C163.195 73.3 164.044 73.048 165.015 73.048C166.882 73.048 168.3 73.7107 169.271 75.036C170.26 76.3427 170.755 78.2187 170.755 80.664C170.755 83.128 170.26 85.0227 169.271 86.348C168.3 87.6733 166.882 88.336 165.015 88.336C164.044 88.336 163.195 88.084 162.467 87.58C161.758 87.076 161.263 86.404 160.983 85.564H160.871V93.6H157.287V73.384ZM163.867 85.368C164.8 85.368 165.556 85.06 166.135 84.444C166.714 83.828 167.003 82.9973 167.003 81.952V79.432C167.003 78.3867 166.714 77.556 166.135 76.94C165.556 76.3053 164.8 75.988 163.867 75.988C163.008 75.988 162.29 76.2027 161.711 76.632C161.151 77.0613 160.871 77.6307 160.871 78.34V82.988C160.871 83.7533 161.151 84.3413 161.711 84.752C162.29 85.1627 163.008 85.368 163.867 85.368Z" fill="#9900E5"/>
<path d="M8.89209 77.976L6.87609 73.916H6.79209V88H3.29209V68.456H7.35209L13.2321 78.48L15.2481 82.54H15.3321V68.456H18.8321V88H14.7721L8.89209 77.976ZM28.9891 88.336C27.9438 88.336 27.0011 88.1587 26.1611 87.804C25.3398 87.4493 24.6304 86.936 24.0331 86.264C23.4544 85.592 23.0064 84.7893 22.6891 83.856C22.3718 82.904 22.2131 81.84 22.2131 80.664C22.2131 79.488 22.3718 78.4333 22.6891 77.5C23.0064 76.5667 23.4544 75.7733 24.0331 75.12C24.6304 74.448 25.3398 73.9347 26.1611 73.58C27.0011 73.2253 27.9438 73.048 28.9891 73.048C30.0344 73.048 30.9771 73.2253 31.8171 73.58C32.6571 73.9347 33.3664 74.448 33.9451 75.12C34.5424 75.7733 34.9998 76.5667 35.3171 77.5C35.6344 78.4333 35.7931 79.488 35.7931 80.664C35.7931 81.84 35.6344 82.904 35.3171 83.856C34.9998 84.7893 34.5424 85.592 33.9451 86.264C33.3664 86.936 32.6571 87.4493 31.8171 87.804C30.9771 88.1587 30.0344 88.336 28.9891 88.336ZM28.9891 85.452C29.9411 85.452 30.6878 85.1627 31.2291 84.584C31.7704 84.0053 32.0411 83.156 32.0411 82.036V79.32C32.0411 78.2187 31.7704 77.3787 31.2291 76.8C30.6878 76.2213 29.9411 75.932 28.9891 75.932C28.0558 75.932 27.3184 76.2213 26.7771 76.8C26.2358 77.3787 25.9651 78.2187 25.9651 79.32V82.036C25.9651 83.156 26.2358 84.0053 26.7771 84.584C27.3184 85.1627 28.0558 85.452 28.9891 85.452ZM45.8116 68.456H52.9236C54.193 68.456 55.341 68.6613 56.3676 69.072C57.413 69.4827 58.2996 70.0987 59.0276 70.92C59.7743 71.7227 60.3436 72.74 60.7356 73.972C61.1463 75.1853 61.3516 76.604 61.3516 78.228C61.3516 79.852 61.1463 81.28 60.7356 82.512C60.3436 83.7253 59.7743 84.7427 59.0276 85.564C58.2996 86.3667 57.413 86.9733 56.3676 87.384C55.341 87.7947 54.193 88 52.9236 88H45.8116V68.456ZM52.9236 84.724C54.305 84.724 55.397 84.3227 56.1996 83.52C57.021 82.6987 57.4316 81.448 57.4316 79.768V76.688C57.4316 75.008 57.021 73.7667 56.1996 72.964C55.397 72.1427 54.305 71.732 52.9236 71.732H49.5076V84.724H52.9236ZM75.6443 88C74.8603 88 74.235 87.776 73.7683 87.328C73.3203 86.8613 73.0403 86.2453 72.9283 85.48H72.7603C72.5176 86.432 72.023 87.1507 71.2763 87.636C70.5296 88.1027 69.6056 88.336 68.5043 88.336C67.011 88.336 65.863 87.944 65.0603 87.16C64.2576 86.376 63.8563 85.3307 63.8563 84.024C63.8563 82.512 64.3976 81.392 65.4803 80.664C66.563 79.9173 68.103 79.544 70.1003 79.544H72.5923V78.48C72.5923 77.6587 72.3776 77.024 71.9483 76.576C71.519 76.128 70.8283 75.904 69.8763 75.904C69.0363 75.904 68.355 76.0907 67.8323 76.464C67.3283 76.8187 66.899 77.248 66.5443 77.752L64.4163 75.848C64.9576 75.008 65.6763 74.336 66.5723 73.832C67.4683 73.3093 68.6536 73.048 70.1283 73.048C72.107 73.048 73.6096 73.496 74.6363 74.392C75.663 75.288 76.1763 76.576 76.1763 78.256V85.144H77.6323V88H75.6443ZM69.7083 85.732C70.511 85.732 71.1923 85.5547 71.7523 85.2C72.3123 84.8453 72.5923 84.3227 72.5923 83.632V81.7H70.2963C68.4296 81.7 67.4963 82.2973 67.4963 83.492V83.968C67.4963 84.5653 67.683 85.0133 68.0563 85.312C68.4483 85.592 68.999 85.732 69.7083 85.732ZM84.9876 88C83.7556 88 82.8129 87.6827 82.1596 87.048C81.5249 86.3947 81.2076 85.4707 81.2076 84.276V76.24H79.0516V73.384H80.1716C80.7129 73.384 81.0769 73.2627 81.2636 73.02C81.4689 72.7587 81.5716 72.376 81.5716 71.872V69.38H84.7916V73.384H87.7876V76.24H84.7916V85.144H87.5636V88H84.9876ZM101.648 88C100.864 88 100.239 87.776 99.7722 87.328C99.3242 86.8613 99.0442 86.2453 98.9322 85.48H98.7642C98.5216 86.432 98.0269 87.1507 97.2802 87.636C96.5336 88.1027 95.6096 88.336 94.5082 88.336C93.0149 88.336 91.8669 87.944 91.0642 87.16C90.2616 86.376 89.8602 85.3307 89.8602 84.024C89.8602 82.512 90.4016 81.392 91.4842 80.664C92.5669 79.9173 94.1069 79.544 96.1042 79.544H98.5962V78.48C98.5962 77.6587 98.3816 77.024 97.9522 76.576C97.5229 76.128 96.8322 75.904 95.8802 75.904C95.0402 75.904 94.3589 76.0907 93.8362 76.464C93.3322 76.8187 92.9029 77.248 92.5482 77.752L90.4202 75.848C90.9616 75.008 91.6802 74.336 92.5762 73.832C93.4722 73.3093 94.6576 73.048 96.1322 73.048C98.1109 73.048 99.6136 73.496 100.64 74.392C101.667 75.288 102.18 76.576 102.18 78.256V85.144H103.636V88H101.648ZM95.7122 85.732C96.5149 85.732 97.1962 85.5547 97.7562 85.2C98.3162 84.8453 98.5962 84.3227 98.5962 83.632V81.7H96.3002C94.4336 81.7 93.5002 82.2973 93.5002 83.492V83.968C93.5002 84.5653 93.6869 85.0133 94.0602 85.312C94.4522 85.592 95.0029 85.732 95.7122 85.732ZM113.378 88V68.456H122.17C123.066 68.456 123.869 68.6053 124.578 68.904C125.306 69.184 125.922 69.5947 126.426 70.136C126.93 70.6587 127.313 71.2933 127.574 72.04C127.835 72.7867 127.966 73.608 127.966 74.504C127.966 75.4187 127.835 76.2493 127.574 76.996C127.313 77.724 126.93 78.3587 126.426 78.9C125.922 79.4227 125.306 79.8333 124.578 80.132C123.869 80.412 123.066 80.552 122.17 80.552H117.074V88H113.378ZM117.074 77.36H121.834C122.543 77.36 123.103 77.1733 123.514 76.8C123.925 76.408 124.13 75.8573 124.13 75.148V73.86C124.13 73.1507 123.925 72.6093 123.514 72.236C123.103 71.8627 122.543 71.676 121.834 71.676H117.074V77.36ZM130.818 88V73.384H134.402V76.408H134.542C134.635 76.016 134.775 75.6427 134.962 75.288C135.167 74.9147 135.429 74.588 135.746 74.308C136.063 74.028 136.437 73.804 136.866 73.636C137.314 73.468 137.827 73.384 138.406 73.384H139.19V76.772H138.07C136.857 76.772 135.942 76.9493 135.326 77.304C134.71 77.6587 134.402 78.2373 134.402 79.04V88H130.818ZM147.582 88.336C146.499 88.336 145.528 88.1587 144.67 87.804C143.83 87.4307 143.111 86.9173 142.514 86.264C141.935 85.592 141.487 84.7893 141.17 83.856C140.852 82.904 140.694 81.84 140.694 80.664C140.694 79.5067 140.843 78.4613 141.142 77.528C141.459 76.5947 141.907 75.8013 142.486 75.148C143.064 74.476 143.774 73.9627 144.614 73.608C145.454 73.2347 146.406 73.048 147.47 73.048C148.608 73.048 149.598 73.244 150.438 73.636C151.278 74.028 151.968 74.56 152.51 75.232C153.051 75.904 153.452 76.688 153.714 77.584C153.994 78.4613 154.134 79.404 154.134 80.412V81.588H144.418V81.952C144.418 83.016 144.716 83.8747 145.314 84.528C145.911 85.1627 146.798 85.48 147.974 85.48C148.87 85.48 149.598 85.2933 150.158 84.92C150.736 84.5467 151.25 84.0707 151.698 83.492L153.63 85.648C153.032 86.488 152.211 87.1507 151.166 87.636C150.139 88.1027 148.944 88.336 147.582 88.336ZM147.526 75.736C146.574 75.736 145.818 76.0533 145.258 76.688C144.698 77.3227 144.418 78.144 144.418 79.152V79.376H150.41V79.124C150.41 78.116 150.158 77.304 149.654 76.688C149.168 76.0533 148.459 75.736 147.526 75.736ZM157.287 73.384H160.871V75.792H160.983C161.244 74.952 161.739 74.2893 162.467 73.804C163.195 73.3 164.044 73.048 165.015 73.048C166.882 73.048 168.3 73.7107 169.271 75.036C170.26 76.3427 170.755 78.2187 170.755 80.664C170.755 83.128 170.26 85.0227 169.271 86.348C168.3 87.6733 166.882 88.336 165.015 88.336C164.044 88.336 163.195 88.084 162.467 87.58C161.758 87.076 161.263 86.404 160.983 85.564H160.871V93.6H157.287V73.384ZM163.867 85.368C164.8 85.368 165.556 85.06 166.135 84.444C166.714 83.828 167.003 82.9973 167.003 81.952V79.432C167.003 78.3867 166.714 77.556 166.135 76.94C165.556 76.3053 164.8 75.988 163.867 75.988C163.008 75.988 162.29 76.2027 161.711 76.632C161.151 77.0613 160.871 77.6307 160.871 78.34V82.988C160.871 83.7533 161.151 84.3413 161.711 84.752C162.29 85.1627 163.008 85.368 163.867 85.368Z" fill="#4B26E1" fill-opacity="0.4"/>
</svg>
