<svg width="51" height="50" viewBox="0 0 51 50" fill="none" xmlns="http://www.w3.org/2000/svg">
<path d="M45.7933 4.0547C45.4671 4.06447 45.1605 4.19923 44.9339 4.43166L40.6038 8.76176C39.0491 7.59966 37.1995 7.01566 35.3383 7.02736C33.0824 7.03908 30.8246 7.90236 29.0998 9.62696L23.9318 14.785C23.6955 15.0193 23.5627 15.3377 23.5627 15.6717C23.5627 16.0037 23.6955 16.3221 23.9318 16.5584L34.5723 27.1969C34.8067 27.4332 35.1251 27.566 35.4571 27.566C35.791 27.566 36.1094 27.4332 36.3437 27.1969L41.4997 22.0389C44.6443 18.8943 44.9412 13.9724 42.3709 10.5309L46.6951 6.19296C47.0583 5.83358 47.1658 5.28866 46.9685 4.81796C46.7693 4.34725 46.3025 4.04451 45.7927 4.05431L45.7933 4.0547ZM35.3478 9.4982C36.9572 9.48844 38.5607 10.1037 39.7931 11.3361C42.2599 13.8029 42.2482 17.7581 39.7384 20.2656L35.4572 24.5469L26.5902 15.6699L30.8636 11.3964C32.1175 10.1425 33.7386 9.5038 35.348 9.49405L35.3478 9.4982ZM22.5843 21.6407C22.2601 21.6505 21.9534 21.7872 21.7269 22.0196L18.7093 25.0372L17.0862 23.4142C16.848 23.172 16.5198 23.0392 16.18 23.045C15.8538 23.0489 15.5433 23.1817 15.3147 23.4142L10.1547 28.5722C7.00825 31.7187 6.7075 36.6427 9.2817 40.0857L4.96335 44.404C4.71139 44.6345 4.56296 44.9568 4.55514 45.2966C4.54733 45.6365 4.67819 45.9665 4.91842 46.2087C5.15866 46.4509 5.48677 46.5837 5.82662 46.5778C6.16842 46.572 6.49067 46.4275 6.72312 46.1775L11.0493 41.8513C14.4907 44.4197 19.4128 44.1169 22.5573 40.9724L27.7253 35.8164H27.7272C28.2116 35.3281 28.2116 34.541 27.7272 34.0528L26.1022 32.4278L29.1003 29.4297C29.4733 29.0684 29.5847 28.5176 29.3835 28.0411C29.1804 27.5645 28.7057 27.2618 28.1882 27.2813C27.864 27.2891 27.5554 27.4258 27.3288 27.6583L24.3307 30.6563L20.4733 26.7989L23.4909 23.7813C23.8562 23.4219 23.9655 22.8751 23.7663 22.4044C23.5651 21.9317 23.0984 21.629 22.5847 21.6407L22.5843 21.6407ZM16.1993 26.0626L25.0663 34.9296L20.7928 39.2109C18.285 41.7206 14.3318 41.7324 11.8633 39.2655C9.39655 36.7968 9.40825 32.8515 11.918 30.3415L16.1993 26.0626Z" fill="#A04DF3"/>
</svg>
