<svg width="135" height="38" viewBox="0 0 135 38" fill="none" xmlns="http://www.w3.org/2000/svg">
<path d="M23.8776 15.3034C23.8776 11.9338 21.5713 9.47021 17.8011 9.47021H9.33594V27.5668H13.1885V21.0822H16.0096L19.5664 27.5668H23.9881L19.9184 20.676C21.8708 20.2174 23.8776 18.5064 23.8776 15.3034Z" fill="#660099"/>
<path fill-rule="evenodd" clip-rule="evenodd" d="M25.2715 18.5329C25.2715 13.0797 29.2514 9.17285 34.7045 9.17285C40.1857 9.17285 44.1806 13.0797 44.1806 18.5329C44.1806 23.986 40.1932 27.8929 34.712 27.8929C29.2588 27.8929 25.2715 23.986 25.2715 18.5329ZM29.2246 18.533C29.2246 21.897 31.3662 24.4748 34.704 24.4748C38.0417 24.4748 40.2114 21.9026 40.2114 18.533C40.2114 15.141 38.0417 12.5913 34.704 12.5913C31.3662 12.5913 29.2246 15.141 29.2246 18.533Z" fill="#660099"/>
<path d="M55.0885 12.5911C56.9282 12.5841 58.6202 13.5977 59.482 15.2232L62.7936 13.5945C61.5169 11.3481 59.2125 9.17285 55.0885 9.17285C49.7963 9.17285 45.5918 12.9711 45.5918 18.5329C45.5918 24.0946 49.7963 27.8929 55.0885 27.8929C59.2069 27.8929 61.4907 25.6951 62.7936 23.4431L59.482 21.8425C58.6286 23.4759 56.9313 24.4927 55.0885 24.4746C51.9397 24.4746 49.5529 21.9511 49.5529 18.5329C49.5529 15.1146 51.9397 12.5911 55.0885 12.5911Z" fill="#660099"/>
<path d="M79.7173 9.47046H74.9699L68.5677 17.5556V9.47046H64.7151V27.5671H68.5677V22.0054L69.9773 20.3224L75.4585 27.5671H80.2059L72.5288 17.9637L79.7173 9.47046Z" fill="#660099"/>
<path d="M88.2549 16.4981C86.1658 16.0096 84.6457 15.6295 84.6457 14.409C84.6457 13.3232 85.5686 12.5651 87.3058 12.5651C89.2188 12.5603 91.0654 13.2661 92.4875 14.5457L94.631 11.7227C92.8395 10.0678 90.4527 9.19922 87.5773 9.19922C83.3166 9.19922 80.7126 11.6422 80.7126 14.6542C80.7126 18.6959 84.5109 19.5102 87.4687 20.1879C89.5578 20.6765 91.1303 21.137 91.1303 22.4942C91.1303 23.5256 90.0989 24.529 87.9835 24.529C85.8145 24.5381 83.7364 23.6586 82.2327 22.0954L80.1211 25.0176C81.8302 26.7268 84.3275 27.893 87.7963 27.893C92.6785 27.893 95.0391 25.3976 95.0391 22.0898C95.0372 18.0725 91.2389 17.1758 88.2549 16.4981Z" fill="#660099"/>
<path d="M97.3574 27.5668H110.164V24.2309H101.21V20.0246H109.975V16.7149H101.21V12.7818H110.164V9.47021H97.3574V27.5668Z" fill="#660099"/>
<path d="M111.576 9.47021V12.8623H116.866V27.5668H120.747V12.8623H126.009V9.47021H111.576Z" fill="#660099"/>
<path d="M11.232 3.744V0H0V1.872V3.744V33.3216V35.1936V37.0656H11.232V33.3216H3.744V3.744H11.232Z" fill="#63C0DD"/>
<path d="M123.178 3.744V0H134.41V1.872V3.744V33.3216V35.1936V37.0656H123.178V33.3216H130.666V3.744H123.178Z" fill="#63C0DD"/>
</svg>
