<svg width="27" height="27" viewBox="0 0 27 27" fill="none" xmlns="http://www.w3.org/2000/svg">
<path fill-rule="evenodd" clip-rule="evenodd" d="M13.5005 27C6.04478 27 0.000488281 20.9557 0.000488281 13.5C0.000488281 6.0434 6.04478 0 13.5005 0C20.9562 0 27.0005 6.0434 27.0005 13.5C27.0005 20.9557 20.9562 27 13.5005 27Z" fill="#2400AF"/>
<path d="M9.33537 15.434C9.33537 16.2568 8.67039 16.9218 7.84762 16.9218C7.02484 16.9218 6.35986 16.2568 6.35986 15.434C6.35986 14.6113 7.02484 13.9463 7.84762 13.9463H9.33537V15.434Z" fill="white"/>
<path d="M10.228 15.4671C10.228 14.626 10.893 13.9463 11.7158 13.9463C12.5386 13.9463 13.2035 14.626 13.2035 15.4671V19.2691C13.2035 20.1102 12.5386 20.79 11.7158 20.79C10.893 20.79 10.228 20.1102 10.228 19.2691V15.4671Z" fill="white"/>
<path d="M11.7158 9.18547C10.893 9.18547 10.228 8.52049 10.228 7.69772C10.228 6.87494 10.893 6.20996 11.7158 6.20996C12.5386 6.20996 13.2035 6.87494 13.2035 7.69772V9.18547H11.7158Z" fill="white"/>
<path d="M11.3874 10.0781C12.2271 10.0781 12.9057 10.7431 12.9057 11.5659C12.9057 12.3887 12.2271 13.0536 11.3874 13.0536H7.58027C6.74063 13.0536 6.06201 12.3887 6.06201 11.5659C6.06201 10.7431 6.74063 10.0781 7.58027 10.0781H11.3874Z" fill="white"/>
<path d="M17.9644 11.5659C17.9644 10.7431 18.6293 10.0781 19.4521 10.0781C20.2749 10.0781 20.9399 10.7431 20.9399 11.5659C20.9399 12.3887 20.2749 13.0536 19.4521 13.0536H17.9644V11.5659Z" fill="white"/>
<path d="M17.0717 11.5354C17.0717 12.375 16.4067 13.0536 15.5839 13.0536C14.7612 13.0536 14.0962 12.375 14.0962 11.5354V7.72822C14.0962 6.88858 14.7612 6.20996 15.5839 6.20996C16.4067 6.20996 17.0717 6.88858 17.0717 7.72822V11.5354Z" fill="white"/>
<path d="M15.6145 16.9218C14.7748 16.9218 14.0962 16.2568 14.0962 15.434C14.0962 14.6113 14.7748 13.9463 15.6145 13.9463H19.4216C20.2612 13.9463 20.9399 14.6113 20.9399 15.434C20.9399 16.2568 20.2612 16.9218 19.4216 16.9218H15.6145Z" fill="white"/>
</svg>
