<svg width="163" height="95" viewBox="0 0 163 95" fill="none" xmlns="http://www.w3.org/2000/svg">
<path d="M100.398 23.604L93.5579 16.4599C93.0765 15.9599 92.2954 15.9599 91.8139 16.4599C91.3325 16.9598 91.3325 17.771 91.8139 18.2709L96.5609 23.2003L83.4226 23.2022L76.8334 15.011C75.8287 13.7414 74.3282 13.0038 72.7458 13H63.2299C62.5505 13 62 13.5716 62 14.2771C62 14.9827 62.5505 15.5543 63.2299 15.5543H72.7258C73.5778 15.5524 74.3881 15.9429 74.9349 16.622L81.2515 24.5094L74.9349 32.378C74.3881 33.0552 73.5778 33.4476 72.7258 33.4438H63.2299C62.5505 33.4438 62 34.0154 62 34.721C62 35.4265 62.5505 36 63.2299 36H72.7258C74.3099 35.9962 75.8087 35.2567 76.8152 33.9871L83.3262 25.7979H96.4846L91.7376 30.7272H91.7358C91.2543 31.2272 91.2543 32.0383 91.7358 32.5383C92.2172 33.0382 92.9984 33.0382 93.4798 32.5383L100.32 25.4357C100.57 25.2074 100.721 24.8829 100.736 24.5358C100.75 24.1906 100.628 23.8529 100.398 23.6039L100.398 23.604Z" fill="#4B26E1"/>
<path d="M8.48333 83.336C6.80333 83.336 5.37533 83.0373 4.19933 82.44C3.042 81.8427 2.04333 81.0587 1.20333 80.088L3.69533 77.68C4.36733 78.464 5.11399 79.0613 5.93533 79.472C6.77533 79.8827 7.69933 80.088 8.70733 80.088C9.846 80.088 10.7047 79.8453 11.2833 79.36C11.862 78.856 12.1513 78.184 12.1513 77.344C12.1513 76.6907 11.9647 76.1587 11.5913 75.748C11.218 75.3373 10.518 75.0387 9.49133 74.852L7.64333 74.572C3.742 73.956 1.79133 72.0613 1.79133 68.888C1.79133 68.0107 1.94999 67.2173 2.26733 66.508C2.60333 65.7987 3.07933 65.192 3.69533 64.688C4.31133 64.184 5.04866 63.8013 5.90733 63.54C6.78466 63.26 7.774 63.12 8.87533 63.12C10.35 63.12 11.638 63.3627 12.7393 63.848C13.8407 64.3333 14.7833 65.052 15.5673 66.004L13.0473 68.384C12.562 67.7867 11.974 67.3013 11.2833 66.928C10.5927 66.5547 9.72466 66.368 8.67933 66.368C7.61533 66.368 6.81266 66.5733 6.27133 66.984C5.74866 67.376 5.48733 67.936 5.48733 68.664C5.48733 69.4107 5.70199 69.9613 6.13133 70.316C6.56066 70.6707 7.25133 70.932 8.20333 71.1L10.0233 71.436C12.002 71.7907 13.458 72.4253 14.3913 73.34C15.3433 74.236 15.8193 75.496 15.8193 77.12C15.8193 78.0533 15.6513 78.9027 15.3153 79.668C14.998 80.4147 14.522 81.068 13.8873 81.628C13.2713 82.1693 12.506 82.5893 11.5913 82.888C10.6953 83.1867 9.65933 83.336 8.48333 83.336ZM32.1245 87.984H29.4085C28.1205 87.984 27.1685 87.6667 26.5525 87.032C25.9552 86.416 25.6565 85.5387 25.6565 84.4V83.224C23.5285 82.9067 21.8298 81.8987 20.5605 80.2C19.3098 78.5013 18.6845 76.1773 18.6845 73.228C18.6845 71.5853 18.8898 70.1387 19.3005 68.888C19.7112 67.6187 20.2805 66.5547 21.0085 65.696C21.7552 64.8373 22.6512 64.1933 23.6965 63.764C24.7418 63.3347 25.9085 63.12 27.1965 63.12C28.4845 63.12 29.6512 63.3347 30.6965 63.764C31.7418 64.1933 32.6378 64.8373 33.3845 65.696C34.1312 66.5547 34.7005 67.6187 35.0925 68.888C35.5032 70.1387 35.7085 71.5853 35.7085 73.228C35.7085 76.1213 35.1205 78.3987 33.9445 80.06C32.7685 81.7213 31.1632 82.748 29.1285 83.14V84.96H32.1245V87.984ZM27.1965 80.06C28.5965 80.06 29.7072 79.5933 30.5285 78.66C31.3685 77.7267 31.7885 76.42 31.7885 74.74V71.716C31.7885 70.036 31.3685 68.7293 30.5285 67.796C29.7072 66.8627 28.5965 66.396 27.1965 66.396C25.7965 66.396 24.6765 66.8627 23.8365 67.796C23.0152 68.7293 22.6045 70.036 22.6045 71.716V74.74C22.6045 76.42 23.0152 77.7267 23.8365 78.66C24.6765 79.5933 25.7965 80.06 27.1965 80.06ZM39.4581 83V63.456H43.1541V79.724H50.8541V83H39.4581ZM66.7529 83.336C65.0729 83.336 63.6449 83.0373 62.4689 82.44C61.3115 81.8427 60.3129 81.0587 59.4729 80.088L61.9649 77.68C62.6369 78.464 63.3835 79.0613 64.2049 79.472C65.0449 79.8827 65.9689 80.088 66.9769 80.088C68.1155 80.088 68.9742 79.8453 69.5529 79.36C70.1315 78.856 70.4209 78.184 70.4209 77.344C70.4209 76.6907 70.2342 76.1587 69.8609 75.748C69.4875 75.3373 68.7875 75.0387 67.7609 74.852L65.9129 74.572C62.0115 73.956 60.0609 72.0613 60.0609 68.888C60.0609 68.0107 60.2195 67.2173 60.5369 66.508C60.8729 65.7987 61.3489 65.192 61.9649 64.688C62.5809 64.184 63.3182 63.8013 64.1769 63.54C65.0542 63.26 66.0435 63.12 67.1449 63.12C68.6195 63.12 69.9075 63.3627 71.0089 63.848C72.1102 64.3333 73.0529 65.052 73.8369 66.004L71.3169 68.384C70.8315 67.7867 70.2435 67.3013 69.5529 66.928C68.8622 66.5547 67.9942 66.368 66.9489 66.368C65.8849 66.368 65.0822 66.5733 64.5409 66.984C64.0182 67.376 63.7569 67.936 63.7569 68.664C63.7569 69.4107 63.9715 69.9613 64.4009 70.316C64.8302 70.6707 65.5209 70.932 66.4729 71.1L68.2929 71.436C70.2715 71.7907 71.7275 72.4253 72.6609 73.34C73.6129 74.236 74.0889 75.496 74.0889 77.12C74.0889 78.0533 73.9209 78.9027 73.5849 79.668C73.2675 80.4147 72.7915 81.068 72.1569 81.628C71.5409 82.1693 70.7755 82.5893 69.8609 82.888C68.9649 83.1867 67.9289 83.336 66.7529 83.336ZM86.306 80.564H86.166C86.0354 80.9373 85.858 81.292 85.634 81.628C85.4287 81.9453 85.158 82.2347 84.822 82.496C84.5047 82.7573 84.1127 82.9627 83.646 83.112C83.198 83.2613 82.6754 83.336 82.078 83.336C80.566 83.336 79.4087 82.8413 78.606 81.852C77.8034 80.8627 77.402 79.4533 77.402 77.624V68.384H80.986V77.26C80.986 78.268 81.182 79.0427 81.574 79.584C81.966 80.1067 82.5914 80.368 83.45 80.368C83.8047 80.368 84.15 80.3213 84.486 80.228C84.8407 80.1347 85.1487 79.9947 85.41 79.808C85.6714 79.6027 85.886 79.36 86.054 79.08C86.222 78.7813 86.306 78.436 86.306 78.044V68.384H89.89V83H86.306V80.564ZM94.031 68.384H97.615V70.792H97.727C97.9883 69.952 98.483 69.2893 99.211 68.804C99.939 68.3 100.788 68.048 101.759 68.048C103.626 68.048 105.044 68.7107 106.015 70.036C107.004 71.3427 107.499 73.2187 107.499 75.664C107.499 78.128 107.004 80.0227 106.015 81.348C105.044 82.6733 103.626 83.336 101.759 83.336C100.788 83.336 99.939 83.084 99.211 82.58C98.5017 82.076 98.007 81.404 97.727 80.564H97.615V88.6H94.031V68.384ZM100.611 80.368C101.544 80.368 102.3 80.06 102.879 79.444C103.458 78.828 103.747 77.9973 103.747 76.952V74.432C103.747 73.3867 103.458 72.556 102.879 71.94C102.3 71.3053 101.544 70.988 100.611 70.988C99.7523 70.988 99.0337 71.2027 98.455 71.632C97.895 72.0613 97.615 72.6307 97.615 73.34V77.988C97.615 78.7533 97.895 79.3413 98.455 79.752C99.0337 80.1627 99.7523 80.368 100.611 80.368ZM110.82 68.384H114.404V70.792H114.516C114.777 69.952 115.272 69.2893 116 68.804C116.728 68.3 117.577 68.048 118.548 68.048C120.415 68.048 121.833 68.7107 122.804 70.036C123.793 71.3427 124.288 73.2187 124.288 75.664C124.288 78.128 123.793 80.0227 122.804 81.348C121.833 82.6733 120.415 83.336 118.548 83.336C117.577 83.336 116.728 83.084 116 82.58C115.291 82.076 114.796 81.404 114.516 80.564H114.404V88.6H110.82V68.384ZM117.4 80.368C118.333 80.368 119.089 80.06 119.668 79.444C120.247 78.828 120.536 77.9973 120.536 76.952V74.432C120.536 73.3867 120.247 72.556 119.668 71.94C119.089 71.3053 118.333 70.988 117.4 70.988C116.541 70.988 115.823 71.2027 115.244 71.632C114.684 72.0613 114.404 72.6307 114.404 73.34V77.988C114.404 78.7533 114.684 79.3413 115.244 79.752C115.823 80.1627 116.541 80.368 117.4 80.368ZM133.405 83.336C132.36 83.336 131.417 83.1587 130.577 82.804C129.756 82.4493 129.046 81.936 128.449 81.264C127.87 80.592 127.422 79.7893 127.105 78.856C126.788 77.904 126.629 76.84 126.629 75.664C126.629 74.488 126.788 73.4333 127.105 72.5C127.422 71.5667 127.87 70.7733 128.449 70.12C129.046 69.448 129.756 68.9347 130.577 68.58C131.417 68.2253 132.36 68.048 133.405 68.048C134.45 68.048 135.393 68.2253 136.233 68.58C137.073 68.9347 137.782 69.448 138.361 70.12C138.958 70.7733 139.416 71.5667 139.733 72.5C140.05 73.4333 140.209 74.488 140.209 75.664C140.209 76.84 140.05 77.904 139.733 78.856C139.416 79.7893 138.958 80.592 138.361 81.264C137.782 81.936 137.073 82.4493 136.233 82.804C135.393 83.1587 134.45 83.336 133.405 83.336ZM133.405 80.452C134.357 80.452 135.104 80.1627 135.645 79.584C136.186 79.0053 136.457 78.156 136.457 77.036V74.32C136.457 73.2187 136.186 72.3787 135.645 71.8C135.104 71.2213 134.357 70.932 133.405 70.932C132.472 70.932 131.734 71.2213 131.193 71.8C130.652 72.3787 130.381 73.2187 130.381 74.32V77.036C130.381 78.156 130.652 79.0053 131.193 79.584C131.734 80.1627 132.472 80.452 133.405 80.452ZM143.386 83V68.384H146.97V71.408H147.11C147.204 71.016 147.344 70.6427 147.53 70.288C147.736 69.9147 147.997 69.588 148.314 69.308C148.632 69.028 149.005 68.804 149.434 68.636C149.882 68.468 150.396 68.384 150.974 68.384H151.758V71.772H150.638C149.425 71.772 148.51 71.9493 147.894 72.304C147.278 72.6587 146.97 73.2373 146.97 74.04V83H143.386ZM159.052 83C157.82 83 156.877 82.6827 156.224 82.048C155.589 81.3947 155.272 80.4707 155.272 79.276V71.24H153.116V68.384H154.236C154.777 68.384 155.141 68.2627 155.328 68.02C155.533 67.7587 155.636 67.376 155.636 66.872V64.38H158.856V68.384H161.852V71.24H158.856V80.144H161.628V83H159.052Z" fill="#4B26E1"/>
</svg>
