<svg width="27" height="27" viewBox="0 0 27 27" fill="none" xmlns="http://www.w3.org/2000/svg">
<path fill-rule="evenodd" clip-rule="evenodd" d="M26.7344 13.3672C26.7344 20.7505 20.7496 26.7344 13.3672 26.7344C5.98484 26.7344 0 20.7505 0 13.3672C0 5.98484 5.98484 0 13.3672 0C20.7496 0 26.7344 5.98484 26.7344 13.3672Z" fill="#2400AF"/>
<path fill-rule="evenodd" clip-rule="evenodd" d="M18.2174 10.6107C18.2235 10.7238 18.2261 10.8379 18.2261 10.9519C18.2261 14.436 15.6384 18.4546 10.9071 18.4546C9.4551 18.4546 8.10304 18.0172 6.96387 17.2698C7.16459 17.292 7.36966 17.3072 7.5782 17.3072C8.78342 17.3072 9.89131 16.8849 10.7733 16.1767C9.64627 16.1571 8.69739 15.3928 8.3698 14.3451C8.52621 14.3772 8.68783 14.3932 8.85206 14.3932C9.08754 14.3932 9.31434 14.3612 9.52983 14.3015C8.35329 14.0574 7.46611 12.9928 7.46611 11.7136V11.6815C7.81369 11.8784 8.20992 11.9969 8.63135 12.0102C7.94142 11.5372 7.48784 10.7301 7.48784 9.81429C7.48784 9.33145 7.6147 8.87979 7.83628 8.49049C9.10405 10.086 11.0001 11.1354 13.1377 11.245C13.0933 11.0526 13.0716 10.8512 13.0716 10.6437C13.0716 9.18891 14.223 8.00854 15.6428 8.00854C16.3831 8.00854 17.0513 8.32747 17.5206 8.8397C18.1062 8.72211 18.6571 8.50296 19.1533 8.20097C18.9604 8.81565 18.5529 9.33234 18.0228 9.65928C18.5433 9.59603 19.0377 9.4535 19.4991 9.24326C19.1559 9.77509 18.7206 10.2392 18.2174 10.6107Z" fill="white"/>
</svg>
